# Exported by acdat from EnvCell 0x860201AD
# EnvironmentId=0x0D0001C9  CellStructure=0
# 16 verts, 14 polys
# AC native coords (right-handed Z-up, metres). UE import must apply the coord transform.
o cell_860201AD
v 5 -5 6
v 5 -5 0
v -5 -5 0
v -5 -5 6
v -5 5 0
v 5 5 0
v 5 5 6
v -5 5 6
v -5 -2.3029 0
v -5 -2.6667 2.1
v -5 -2.3029 3.1
v -5 -1.45 3.75
v -5 1.45 3.75
v -5 2.30286 3.1
v -5 2.6667 2.1
v -5 2.3 0
vn -0.707107 0.707107 0
vn -0.57735 0.57735 0.57735
vn 0.57735 0.57735 0.57735
vn 0.980581 0.196116 0
vn 0.816497 -0.408248 0.408248
vn -0.57735 -0.57735 0.57735
vn -0.707107 -0.707107 0
vn 0.948683 -0.316228 0
vn 1 0 0
vn 1 0 0
vn 1 0 0
vn 1 0 0
vn 1 0 0
vn 1 0 0
vn 1 0 0
vn 1 0 0
vt 2.5 0
vt 2.5 1
vt 0.5 1
vt 0.5 0
vt 0 0
vt 3 0
vt 2.5 0
vt 0.5 0
vt 1.03942 1
vt 0.96666 0.65
vt 1.03942 0.483333
vt 1.21 0.375
vt 1.79 0.375
vt 1.96057 0.483333
vt 2.03334 0.65
vt 1.96 1
g surf_0
usemtl surf_0
f 1/1/1 2/2/2 3/3/3
f 1/1/1 3/3/3 4/4/4
f 7/7/7 6/6/6 2/2/2
f 7/7/7 2/2/2 1/1/1
f 8/8/8 5/5/5 6/6/6
f 8/8/8 6/6/6 7/7/7
f 3/3/3 9/9/9 10/10/10
f 3/3/3 10/10/10 4/4/4
f 10/10/10 11/11/11 4/4/4
f 11/11/11 12/12/12 4/4/4
f 12/12/12 13/13/13 4/4/4
f 13/13/13 14/14/14 8/8/8
f 13/13/13 8/8/8 4/4/4
f 14/14/14 15/15/15 5/5/5
f 14/14/14 5/5/5 8/8/8
f 15/15/15 16/16/16 5/5/5
g surf_1
usemtl surf_1
f 5/5/5 3/3/3 2/2/2
f 5/5/5 2/2/2 6/6/6
g surf_2
usemtl surf_2
f 16/16/16 15/15/15 14/14/14
f 16/16/16 14/14/14 13/13/13
f 16/16/16 13/13/13 12/12/12
f 16/16/16 12/12/12 11/11/11
f 16/16/16 11/11/11 10/10/10
f 16/16/16 10/10/10 9/9/9
f 8/8/8 7/7/7 1/1/1
f 8/8/8 1/1/1 4/4/4
